<svg width="1116" height="859" viewBox="0 0 1116 859" fill="none" xmlns="http://www.w3.org/2000/svg">
<path d="M441.897 847.164L158.675 589.8C151.99 583.462 140.731 588.391 140.731 597.545V677.818C140.731 692.605 128.769 704.575 113.992 704.575H26.739C11.9622 704.575 0 692.605 0 677.818V316.592C0 293.355 27.7945 281.032 45.034 296.523L451.748 665.495C458.081 671.48 468.284 670.776 473.913 664.439L1069.21 8.88047C1085.74 -9.42729 1116 2.54317 1116 26.8362V435.24C1116 450.027 1104.04 461.997 1089.26 461.997H1002.36C987.583 461.997 975.62 450.027 975.62 435.24V353.911C975.62 342.645 961.547 337.012 954.159 345.462L501.356 844.348C485.875 861.599 459.136 862.656 442.248 847.164H441.897Z" fill="black" fill-opacity="0.1"/>
</svg>
