<svg width="992" height="764" viewBox="0 0 992 764" fill="none" xmlns="http://www.w3.org/2000/svg">
<path d="M392.797 754.283L141.044 525.135C135.102 519.493 125.095 523.881 125.095 532.032V603.503C125.095 616.669 114.462 627.327 101.327 627.327H23.768C10.633 627.327 0 616.669 0 603.503V281.881C0 261.192 24.7062 250.221 40.0303 264.013L401.554 592.532C407.183 597.861 416.252 597.234 421.256 591.591L950.406 7.90684C965.105 -8.3937 992 2.26434 992 23.8939V387.521C992 400.687 981.367 411.345 968.232 411.345H890.986C877.851 411.345 867.218 400.687 867.218 387.521V315.109C867.218 305.078 854.709 300.063 848.141 307.586L445.649 751.776C431.889 767.136 408.121 768.076 393.11 754.283H392.797Z" fill="black" fill-opacity="0.1"/>
</svg>
