<svg width="31" height="32" viewBox="0 0 31 32" fill="none" xmlns="http://www.w3.org/2000/svg">
<path d="M12 0C13.375 0 14.625 0.5625 15.5 1.4375C16.375 0.5625 17.625 0 19 0C21.3125 0 23.25 1.5625 23.8125 3.625C26.75 4.25 29 6.875 29 10C29 10.6875 28.875 11.375 28.6875 12C30.125 13.1875 31 15 31 17C31 18.5 30.5 19.875 29.6875 20.9375C29.875 21.625 30 22.3125 30 23C30 26.375 27.4375 29.125 24.125 29.5C23.125 31 21.4375 32 19.5 32C17.9375 32 16.5 31.3125 15.5 30.25C14.5 31.3125 13.0625 32 11.5 32C9.5625 32 7.875 31 6.875 29.5C3.5625 29.1875 1 26.375 1 23C1 22.3125 1.125 21.625 1.3125 20.9375C0.5 19.875 0 18.5 0 17C0 15 0.875 13.1875 2.3125 12C2.125 11.375 2 10.6875 2 10C2 6.875 4.25 4.25 7.1875 3.625C7.8125 1.5625 9.6875 0 12 0ZM14 5C14 3.875 13.125 3 12 3C10.875 3 10 3.875 10 5C10 5.8125 9.3125 6.5 8.5 6.5C6.5625 6.5 5 8.0625 5 10C5 10.6875 5.1875 11.25 5.5 11.8125C5.6875 12.125 5.75 12.5625 5.625 13C5.5625 13.375 5.25 13.6875 4.875 13.875C3.75 14.5 3 15.625 3 17C3 18 3.4375 18.9375 4.125 19.5625C4.625 20 4.75 20.75 4.4375 21.375C4.1875 21.875 4 22.4375 4 23C4 24.9375 5.5625 26.5 7.5 26.5C7.5625 26.5 7.625 26.5 7.6875 26.5C8.375 26.4375 8.9375 26.8125 9.1875 27.4375C9.5625 28.375 10.4375 29 11.5 29C12.75 29 13.8125 28.0625 14 26.8125C14 26.75 14 26.75 14 26.6875V5ZM17 26.6875C17 26.75 17 26.75 17 26.8125C17.1875 28.0625 18.25 29 19.5 29C20.5625 29 21.4375 28.375 21.8125 27.4375C22.0625 26.8125 22.625 26.4375 23.3125 26.5C23.375 26.5 23.4375 26.5 23.5 26.5C25.4375 26.5 27 24.9375 27 23C27 22.375 26.875 21.875 26.5625 21.375C26.25 20.75 26.375 20 26.875 19.5625C27.5625 18.9375 28 18 28 17C28 15.625 27.25 14.5 26.125 13.875C25.75 13.6875 25.4375 13.375 25.375 13C25.25 12.5625 25.3125 12.125 25.5 11.8125C25.8125 11.25 26 10.6875 26 10C26 8.0625 24.4375 6.5 22.5 6.5C21.6875 6.5 21 5.8125 21 5C21 3.875 20.125 3 19 3C17.875 3 17 3.875 17 5V26.6875Z" fill="black"/>
</svg>
