<svg width="40" height="32" viewBox="0 0 40 32" fill="none" xmlns="http://www.w3.org/2000/svg">
<path d="M29 12C29 7.0625 25 3 20 3C15.0625 3 11 7.0625 11 12C11 14.375 11.9375 16.5625 13.5 18.1875C14.8125 19.625 16.25 21.5625 16.8125 24H23.1875C23.75 21.5625 25.1875 19.625 26.5625 18.1875C28.0625 16.5625 29 14.375 29 12ZM26 25.875V27C26 29.75 23.75 32 21 32H19C16.25 32 14 29.75 14 27V25.875C14 23.6875 12.75 21.8125 11.3125 20.25C9.25 18.125 8 15.1875 8 12C8 5.375 13.375 0 20 0C26.625 0 32 5.375 32 12C32 15.1875 30.75 18.125 28.6875 20.25C27.25 21.8125 26 23.6875 26 25.875ZM19.5 9C18.125 9 17 10.125 17 11.5C17 12.3125 16.3125 13 15.5 13C14.6875 13 14 12.3125 14 11.5C14 8.4375 16.4375 6 19.5 6C20.3125 6 21 6.6875 21 7.5C21 8.3125 20.3125 9 19.5 9ZM3.6875 1.6875L5.6875 2.6875C6.4375 3.0625 6.6875 3.9375 6.375 4.6875C6 5.4375 5.0625 5.6875 4.3125 5.375L2.3125 4.375C1.5625 4 1.3125 3.0625 1.6875 2.3125C2 1.5625 2.9375 1.3125 3.6875 1.6875ZM37.6875 4.3125L35.6875 5.3125C34.9375 5.6875 34.0625 5.4375 33.6875 4.6875C33.3125 3.9375 33.5625 3 34.3125 2.6875L36.3125 1.6875C37.0625 1.3125 37.9375 1.5625 38.3125 2.3125C38.6875 3.0625 38.4375 4 37.6875 4.3125ZM1.5 10.5H3.5C4.3125 10.5 5 11.1875 5 12C5 12.8125 4.3125 13.5 3.5 13.5H1.5C0.6875 13.5 0 12.8125 0 12C0 11.1875 0.6875 10.5 1.5 10.5ZM36.5 10.5H38.5C39.3125 10.5 40 11.1875 40 12C40 12.8125 39.3125 13.5 38.5 13.5H36.5C35.6875 13.5 35 12.8125 35 12C35 11.1875 35.6875 10.5 36.5 10.5ZM5.6875 21.375L3.6875 22.375C2.9375 22.75 2.0625 22.4375 1.6875 21.6875C1.3125 20.9375 1.5625 20.0625 2.3125 19.6875L4.3125 18.6875C5.0625 18.3125 5.9375 18.5625 6.3125 19.3125C6.6875 20.0625 6.4375 21 5.6875 21.375ZM35.6875 18.6875L37.6875 19.6875C38.4375 20.0625 38.6875 20.9375 38.3125 21.6875C38 22.4375 37.0625 22.6875 36.3125 22.375L34.3125 21.375C33.5625 21 33.3125 20.0625 33.6875 19.3125C34 18.625 34.9375 18.3125 35.6875 18.6875Z" fill="black"/>
</svg>
