<svg width="33" height="33" viewBox="0 0 33 33" fill="none" xmlns="http://www.w3.org/2000/svg">
<path d="M0.625 0.5625C1.1875 0 2.125 0 2.6875 0.5625L9.125 7V4.625C9.125 3.8125 9.8125 3.125 10.625 3.125C11.5 3.125 12.125 3.8125 12.125 4.625V10.625C12.125 11.4375 11.5 12.125 10.625 12.125H4.625C3.8125 12.125 3.125 11.4375 3.125 10.625C3.125 9.8125 3.8125 9.125 4.625 9.125H7.0625L0.625 2.6875C0 2.125 0 1.125 0.625 0.5625ZM12.625 16.125C12.625 14.1875 14.1875 12.625 16.125 12.625C18.0625 12.625 19.6875 14.1875 19.6875 16.125C19.6875 18.0625 18.0625 19.6875 16.125 19.6875C14.1875 19.6875 12.625 18.0625 12.625 16.125ZM31.75 2.6875L25.3125 9.125H27.6875C28.5 9.125 29.1875 9.8125 29.1875 10.625C29.1875 11.4375 28.5 12.125 27.6875 12.125H21.6875C20.8125 12.125 20.1875 11.4375 20.1875 10.625V4.625C20.1875 3.8125 20.8125 3.125 21.6875 3.125C22.5 3.125 23.1875 3.8125 23.1875 4.625V7L29.625 0.5625C30.1875 0 31.125 0 31.75 0.5625C32.3125 1.1875 32.3125 2.125 31.75 2.6875ZM31.75 31.6875C31.125 32.25 30.1875 32.25 29.625 31.6875L23.1875 25.25V27.625C23.1875 28.4375 22.5 29.125 21.6875 29.125C20.8125 29.125 20.1875 28.4375 20.1875 27.625V21.625C20.1875 20.8125 20.8125 20.125 21.6875 20.125H27.6875C28.5 20.125 29.1875 20.8125 29.1875 21.625C29.1875 22.4375 28.5 23.125 27.6875 23.125H25.3125L31.75 29.5625C32.3125 30.1875 32.3125 31.125 31.75 31.6875ZM0.625 29.5625L7.0625 23.125H4.625C3.8125 23.125 3.125 22.4375 3.125 21.625C3.125 20.8125 3.8125 20.125 4.625 20.125H10.625C11.5 20.125 12.125 20.8125 12.125 21.625V27.625C12.125 28.4375 11.5 29.125 10.625 29.125C9.8125 29.125 9.125 28.4375 9.125 27.625V25.25L2.6875 31.6875C2.125 32.25 1.1875 32.25 0.625 31.6875C0 31.125 0 30.125 0.625 29.5625Z" fill="black"/>
</svg>
