<svg width="32" height="24" viewBox="0 0 32 24" fill="none" xmlns="http://www.w3.org/2000/svg">
<path d="M3.8125 0H28.1875C30.3125 0 32 1.75 32 3.8125C32 3.875 32 3.9375 32 4V20C32 22.1875 30.1875 24 28 24H4C1.8125 24 0 22.1875 0 20V4C0 3.9375 0 3.875 0 3.8125C0 1.75 1.75 0 3.8125 0ZM29 8L19.3125 15.375C17.375 16.875 14.625 16.875 12.6875 15.375L3 8V20C3 20.5625 3.4375 21 4 21H28C28.5625 21 29 20.5625 29 20V8ZM3 3.8125C3 4.125 3.125 4.375 3.3125 4.5L14.5 13C15.375 13.625 16.625 13.625 17.5 13L28.6875 4.5C28.875 4.375 29 4.125 29 3.8125C29 3.375 28.625 3 28.1875 3H3.8125C3.375 3 3 3.375 3 3.8125Z" fill="black"/>
</svg>
