<svg width="271" height="52" viewBox="0 0 271 52" fill="none" xmlns="http://www.w3.org/2000/svg">
<path d="M102.676 27.2749V22.5166H84.8283V27.9577H95.2569L84.5527 40.5256V45.2626H102.845V39.8215H91.9715L102.676 27.2749Z" fill="white"/>
<path d="M116.432 37.7731L111.26 22.5166H104.88L113.571 45.2626H119.4L127.666 22.5166H121.413L116.432 37.7731Z" fill="white"/>
<path d="M145.747 23.5402C144.072 22.516 142.08 22.0039 139.812 22.0039C137.544 22.0039 135.594 22.516 133.898 23.5189C132.202 24.5218 130.888 25.93 129.977 27.7011C129.044 29.4934 128.599 31.5632 128.599 33.9103C128.599 36.2575 129.065 38.3699 129.977 40.141C130.909 41.912 132.202 43.2776 133.898 44.2591C135.594 45.2407 137.565 45.7314 139.812 45.7314C142.271 45.7314 144.369 45.2193 146.128 44.2165C147.866 43.2136 149.244 41.7626 150.262 39.8636L146.065 37.4524C145.408 38.4126 144.645 39.2234 143.754 39.8636C142.864 40.5037 141.635 40.8451 140.066 40.8451C138.286 40.8451 136.865 40.333 135.848 39.2874C134.958 38.3913 134.47 37.175 134.343 35.6814H150.919C150.982 35.468 151.025 35.1906 151.025 34.8705C151.025 34.5505 151.046 34.2091 151.046 33.8677C151.046 31.5632 150.58 29.5361 149.668 27.7437C148.735 25.9514 147.442 24.5644 145.768 23.5402H145.747ZM139.812 26.8049C141.719 26.8049 143.14 27.4023 144.03 28.6186C144.56 29.3227 144.92 30.1762 145.132 31.1364H134.386C134.597 30.0482 135.043 29.1094 135.763 28.3625C136.781 27.317 138.116 26.8049 139.791 26.8049H139.812Z" fill="white"/>
<path d="M146.743 12.9356L143.776 10.0977L139.769 13.9384L135.784 10.0977L132.796 12.9356L139.812 19.5076L146.743 12.9356Z" fill="white"/>
<path d="M169.89 24.0522C169.614 23.8174 169.317 23.6041 169.02 23.412C167.537 22.4732 165.799 22.0251 163.806 22.0251C161.814 22.0251 159.97 22.5158 158.401 23.5187C156.833 24.5216 155.603 25.9085 154.734 27.6796C153.865 29.4719 153.42 31.5417 153.42 33.8888C153.42 36.236 153.844 38.2844 154.713 40.0768C155.582 41.8691 156.79 43.2774 158.359 44.3016C159.927 45.3259 161.75 45.838 163.806 45.838C165.862 45.838 167.516 45.3472 168.999 44.3443C169.635 43.9176 170.207 43.4055 170.737 42.8293L171.437 45.2832H175.973V13.5967H169.911V24.0522H169.89ZM168.681 38.4551C167.685 39.6073 166.413 40.2048 164.845 40.2048C163.276 40.2048 162.026 39.6073 161.029 38.4338C160.033 37.2602 159.525 35.7452 159.525 33.8675C159.525 31.9898 160.033 30.4961 161.029 29.3439C162.026 28.1917 163.297 27.5942 164.845 27.5942C166.392 27.5942 167.685 28.1703 168.681 29.3439C169.656 30.4961 170.165 32.0325 170.165 33.9315C170.165 35.8306 169.678 37.3029 168.681 38.4551Z" fill="white"/>
<path d="M197.402 23.5189C195.622 22.516 193.566 22.0039 191.234 22.0039C188.903 22.0039 186.847 22.516 185.066 23.5189C183.286 24.5218 181.908 25.93 180.933 27.7011C179.937 29.4934 179.449 31.5632 179.449 33.9103C179.449 36.2575 179.937 38.3273 180.933 40.1196C181.908 41.912 183.286 43.2989 185.066 44.3018C186.825 45.3047 188.903 45.8168 191.234 45.8168C193.566 45.8168 195.622 45.3047 197.402 44.3018C199.183 43.2989 200.561 41.8906 201.536 40.1196C202.511 38.3486 203.02 36.2575 203.02 33.9103C203.02 31.5632 202.532 29.4934 201.536 27.7011C200.54 25.9087 199.162 24.5218 197.402 23.5189ZM195.283 38.2419C194.244 39.3515 192.888 39.9062 191.213 39.9062C189.539 39.9062 188.203 39.3515 187.165 38.2419C186.126 37.1323 185.617 35.66 185.617 33.8677C185.617 32.0753 186.126 30.6243 187.165 29.5148C188.203 28.4052 189.539 27.8718 191.213 27.8718C192.888 27.8718 194.223 28.4266 195.283 29.5361C196.321 30.6457 196.851 32.118 196.851 33.9103C196.851 35.7027 196.321 37.111 195.283 38.2419Z" fill="white"/>
<path d="M239.456 24.9487C238.99 24.0525 238.312 23.327 237.379 22.8149C236.446 22.2814 235.238 22.0254 233.733 22.0254C232.504 22.0254 231.317 22.2388 230.193 22.6442C229.07 23.0709 228.031 23.6257 227.056 24.3512C226.59 24.6926 226.124 25.0767 225.7 25.4821C225.636 25.3114 225.573 25.1194 225.488 24.9487C225.043 24.0525 224.364 23.327 223.432 22.8149C222.499 22.2814 221.27 22.0254 219.743 22.0254C218.514 22.0254 217.327 22.2388 216.204 22.6442C215.08 23.0709 214.042 23.6257 213.088 24.3512C212.685 24.6499 212.304 24.97 211.943 25.3114L211.159 22.5375H206.623V45.2835H212.664V30.6458C213.215 30.027 213.83 29.4509 214.55 28.9815C215.589 28.32 216.67 27.9786 217.793 27.9786C218.557 27.9786 219.235 28.2133 219.786 28.6828C220.337 29.1522 220.613 30.0697 220.613 31.478V45.2835H226.654V31.5207C226.654 31.2433 226.654 30.9659 226.632 30.6885C227.205 30.0484 227.819 29.4509 228.561 28.9815C229.6 28.32 230.681 27.9786 231.804 27.9786C232.567 27.9786 233.224 28.2133 233.776 28.6828C234.305 29.1522 234.581 30.0697 234.581 31.478V45.2835H240.686V31.5207C240.686 30.3044 240.601 29.1308 240.431 27.9999C240.262 26.8691 239.944 25.8448 239.477 24.9487H239.456Z" fill="white"/>
<path d="M251.686 22.5166H245.646V45.2626H251.686V22.5166Z" fill="white"/>
<path d="M248.655 11.6982C247.553 11.6982 246.663 12.0396 246.006 12.7438C245.349 13.4479 245.01 14.3441 245.01 15.4537C245.01 16.4992 245.349 17.3741 246.006 18.0569C246.663 18.7397 247.553 19.0811 248.655 19.0811C249.758 19.0811 250.648 18.7397 251.305 18.0569C251.962 17.3741 252.301 16.4992 252.301 15.4537C252.301 14.3441 251.962 13.4266 251.305 12.7438C250.648 12.0396 249.758 11.6982 248.655 11.6982Z" fill="white"/>
<path d="M270 28.1491V22.5159H265.061V17.1602H260.165L258.914 22.5159H255.502V28.1491H259.02V37.9644C259.02 40.653 259.699 42.616 261.034 43.8536C262.369 45.0699 264.192 45.6887 266.503 45.6887C267.245 45.6887 267.881 45.646 268.453 45.5393C269.004 45.454 269.534 45.3046 270.021 45.1126V39.4367C269.703 39.5221 269.364 39.6074 268.962 39.6928C268.559 39.7781 268.114 39.7995 267.626 39.7995C266.884 39.7995 266.27 39.5648 265.803 39.1167C265.316 38.6686 265.083 37.9431 265.083 36.9615V28.1277H270.021L270 28.1491Z" fill="white"/>
<path d="M26.6227 51.3433L9.55959 35.7454C9.15685 35.3614 8.47857 35.6601 8.47857 36.2149V41.0799C8.47857 41.976 7.75789 42.7015 6.86764 42.7015H1.61093C0.720678 42.7015 0 41.976 0 41.0799V19.1874C0 17.7791 1.67452 17.0323 2.71314 17.9711L27.2162 40.333C27.5977 40.6958 28.2124 40.6531 28.5516 40.269L64.4159 0.53821C65.4122 -0.571351 67.235 0.154131 67.235 1.62643V26.3782C67.235 27.2744 66.5144 27.9998 65.6241 27.9998H60.3886C59.4984 27.9998 58.7777 27.2744 58.7777 26.3782V21.4492C58.7777 20.7664 57.9298 20.425 57.4847 20.9371L30.2049 51.1726C29.2723 52.2181 27.6613 52.2822 26.6439 51.3433H26.6227Z" fill="white"/>
</svg>
