<svg width="37" height="21" viewBox="0 0 37 21" fill="none" xmlns="http://www.w3.org/2000/svg">
<path d="M22.125 1.5C22.125 0.6875 22.8125 0 23.625 0H34.625C35.4375 0 36.125 0.6875 36.125 1.5V12.5C36.125 13.3125 35.4375 14 34.625 14C33.8125 14 33.125 13.3125 33.125 12.5V5.125L21.1875 17.0625C20.625 17.625 19.625 17.625 19.0625 17.0625L12.125 10.125L2.6875 19.5625C2.125 20.125 1.125 20.125 0.5625 19.5625C0 19 0 18 0.5625 17.4375L11.0625 6.9375C11.625 6.375 12.625 6.375 13.1875 6.9375L20.125 13.875L31 3H23.625C22.8125 3 22.125 2.3125 22.125 1.5Z" fill="black"/>
</svg>
