<svg width="32" height="24" viewBox="0 0 32 24" fill="none" xmlns="http://www.w3.org/2000/svg">
<path d="M0 1.5C0 0.6875 0.6875 0 1.5 0H26.5C27.3125 0 28 0.6875 28 1.5C28 2.3125 27.3125 3 26.5 3H1.5C0.6875 3 0 2.3125 0 1.5ZM4 12C4 11.1875 4.6875 10.5 5.5 10.5H30.5C31.3125 10.5 32 11.1875 32 12C32 12.8125 31.3125 13.5 30.5 13.5H5.5C4.6875 13.5 4 12.8125 4 12ZM28 22.5C28 23.3125 27.3125 24 26.5 24H1.5C0.6875 24 0 23.3125 0 22.5C0 21.6875 0.6875 21 1.5 21H26.5C27.3125 21 28 21.6875 28 22.5Z" fill="black"/>
</svg>
