<svg width="1098" height="844" viewBox="0 0 1098 844" fill="none" xmlns="http://www.w3.org/2000/svg">
<path d="M434.769 833.266L156.115 580.123C149.538 573.89 138.462 578.738 138.462 587.742V666.697C138.462 681.242 126.692 693.016 112.154 693.016H26.3077C11.7692 693.016 0 681.242 0 666.697V311.398C0 288.542 27.3462 276.422 44.3077 291.659L444.462 654.577C450.692 660.464 460.731 659.771 466.269 653.538L1051.96 8.73478C1068.23 -9.27262 1098 2.50144 1098 26.3959V428.099C1098 442.644 1086.23 454.418 1071.69 454.418H986.192C971.654 454.418 959.885 442.644 959.885 428.099V348.105C959.885 337.023 946.039 331.483 938.769 339.794L493.269 830.495C478.038 847.464 451.731 848.503 435.115 833.266H434.769Z" fill="black" fill-opacity="0.1"/>
</svg>
