<svg width="140" height="27" viewBox="0 0 140 27" fill="none" xmlns="http://www.w3.org/2000/svg">
<g clip-path="url(#clip0_19_356)">
<path d="M53.2391 14.1592V11.6885H43.9849V14.5137H49.3924L43.842 21.0394V23.499H53.327V20.6738H47.6888L53.2391 14.1592Z" fill="#1D1D1B"/>
<path d="M60.372 19.6102L57.6903 11.6885H54.3821L58.8883 23.499H61.9107L66.1971 11.6885H62.9549L60.372 19.6102Z" fill="#1D1D1B"/>
<path d="M75.5724 12.2203C74.7042 11.6885 73.671 11.4226 72.495 11.4226C71.319 11.4226 70.3079 11.6885 69.4286 12.2093C68.5493 12.73 67.8679 13.4612 67.3953 14.3808C66.9117 15.3114 66.6809 16.3861 66.6809 17.6048C66.6809 18.8235 66.9227 19.9204 67.3953 20.84C67.8789 21.7595 68.5493 22.4686 69.4286 22.9782C70.3079 23.4879 71.33 23.7427 72.495 23.7427C73.7699 23.7427 74.858 23.4768 75.7703 22.9561C76.6715 22.4354 77.3859 21.682 77.9134 20.6959L75.7373 19.444C75.3966 19.9425 75.0009 20.3635 74.5393 20.6959C74.0777 21.0283 73.4402 21.2056 72.6269 21.2056C71.7037 21.2056 70.9673 20.9397 70.4397 20.3968C69.9781 19.9315 69.7253 19.2999 69.6594 18.5244H78.2542C78.2871 18.4136 78.3091 18.2696 78.3091 18.1034C78.3091 17.9372 78.3201 17.7599 78.3201 17.5827C78.3201 16.3861 78.0783 15.3336 77.6057 14.4029C77.1221 13.4723 76.4517 12.7521 75.5834 12.2203H75.5724ZM72.495 13.9155C73.4842 13.9155 74.2206 14.2257 74.6822 14.8572C74.9569 15.2228 75.1438 15.666 75.2537 16.1645H69.6814C69.7913 15.5995 70.0221 15.112 70.3958 14.7242C70.9233 14.1814 71.6157 13.9155 72.484 13.9155H72.495Z" fill="#1D1D1B"/>
<path d="M76.0888 6.71398L74.5501 5.24045L72.4729 7.2347L70.4066 5.24045L68.8569 6.71398L72.4949 10.1264L76.0888 6.71398Z" fill="#1D1D1B"/>
<path d="M88.0908 12.4862C87.948 12.3644 87.7941 12.2536 87.6402 12.1539C86.8709 11.6664 85.9696 11.4337 84.9365 11.4337C83.9034 11.4337 82.9472 11.6885 82.1339 12.2093C81.3205 12.73 80.6831 13.4501 80.2325 14.3697C79.7818 15.3004 79.551 16.375 79.551 17.5937C79.551 18.8125 79.7708 19.8761 80.2215 20.8067C80.6721 21.7374 81.2986 22.4686 82.1119 23.0004C82.9252 23.5322 83.8704 23.7981 84.9365 23.7981C86.0026 23.7981 86.8599 23.5433 87.6292 23.0226C87.9589 22.801 88.2557 22.5351 88.5305 22.2359L88.8932 23.51H91.2452V7.05743H88.1018V12.4862H88.0908ZM87.4644 19.9647C86.9478 20.563 86.2883 20.8732 85.475 20.8732C84.6617 20.8732 84.0133 20.563 83.4967 19.9536C82.9801 19.3443 82.7164 18.5576 82.7164 17.5827C82.7164 16.6077 82.9801 15.8322 83.4967 15.2339C84.0133 14.6356 84.6727 14.3254 85.475 14.3254C86.2774 14.3254 86.9478 14.6245 87.4644 15.2339C87.9699 15.8322 88.2337 16.6299 88.2337 17.6159C88.2337 18.602 87.9809 19.3664 87.4644 19.9647Z" fill="#1D1D1B"/>
<path d="M102.357 12.2093C101.434 11.6885 100.367 11.4226 99.1585 11.4226C97.9495 11.4226 96.8834 11.6885 95.9601 12.2093C95.0369 12.73 94.3225 13.4612 93.817 14.3808C93.3004 15.3114 93.0476 16.3861 93.0476 17.6048C93.0476 18.8235 93.3004 19.8982 93.817 20.8289C94.3225 21.7595 95.0369 22.4797 95.9601 23.0004C96.8724 23.5211 97.9495 23.787 99.1585 23.787C100.367 23.787 101.434 23.5211 102.357 23.0004C103.28 22.4797 103.994 21.7484 104.5 20.8289C105.006 19.9093 105.269 18.8235 105.269 17.6048C105.269 16.3861 105.017 15.3114 104.5 14.3808C103.983 13.4501 103.269 12.73 102.357 12.2093ZM101.258 19.8539C100.719 20.43 100.016 20.7181 99.1475 20.7181C98.2792 20.7181 97.5868 20.43 97.0482 19.8539C96.5097 19.2778 96.2459 18.5133 96.2459 17.5827C96.2459 16.652 96.5097 15.8986 97.0482 15.3225C97.5868 14.7464 98.2792 14.4694 99.1475 14.4694C100.016 14.4694 100.708 14.7575 101.258 15.3336C101.796 15.9097 102.071 16.6742 102.071 17.6048C102.071 18.5355 101.796 19.2667 101.258 19.8539Z" fill="#1D1D1B"/>
<path d="M124.162 12.9516C123.921 12.4862 123.569 12.1095 123.085 11.8436C122.602 11.5667 121.975 11.4337 121.195 11.4337C120.557 11.4337 119.942 11.5445 119.359 11.755C118.777 11.9766 118.238 12.2647 117.733 12.6413C117.491 12.8186 117.249 13.018 117.029 13.2285C116.996 13.1399 116.963 13.0402 116.919 12.9516C116.689 12.4862 116.337 12.1095 115.853 11.8436C115.37 11.5667 114.732 11.4337 113.941 11.4337C113.303 11.4337 112.688 11.5445 112.106 11.755C111.523 11.9766 110.984 12.2647 110.49 12.6413C110.281 12.7965 110.083 12.9626 109.896 13.1399L109.49 11.6996H107.138V23.51H110.27V15.9097C110.556 15.5884 110.875 15.2893 111.248 15.0455C111.787 14.7021 112.347 14.5248 112.93 14.5248C113.325 14.5248 113.677 14.6467 113.963 14.8904C114.249 15.1342 114.392 15.6106 114.392 16.3418V23.51H117.524V16.364C117.524 16.2199 117.524 16.0759 117.513 15.9319C117.81 15.5995 118.128 15.2893 118.513 15.0455C119.052 14.7021 119.612 14.5248 120.195 14.5248C120.59 14.5248 120.931 14.6467 121.217 14.8904C121.492 15.1342 121.634 15.6106 121.634 16.3418V23.51H124.8V16.364C124.8 15.7324 124.756 15.1231 124.668 14.5359C124.58 13.9487 124.415 13.4169 124.173 12.9516H124.162Z" fill="#1D1D1B"/>
<path d="M130.504 11.6885H127.372V23.499H130.504V11.6885Z" fill="#1D1D1B"/>
<path d="M128.932 6.07138C128.361 6.07138 127.899 6.24865 127.559 6.61426C127.218 6.97987 127.042 7.4452 127.042 8.02132C127.042 8.5642 127.218 9.01845 127.559 9.37298C127.899 9.72752 128.361 9.90478 128.932 9.90478C129.504 9.90478 129.966 9.72752 130.306 9.37298C130.647 9.01845 130.823 8.5642 130.823 8.02132C130.823 7.4452 130.647 6.9688 130.306 6.61426C129.966 6.24865 129.504 6.07138 128.932 6.07138Z" fill="#1D1D1B"/>
<path d="M140 14.6134V11.6885H137.439V8.90765H134.9L134.252 11.6885H132.482V14.6134H134.307V19.7099C134.307 21.1058 134.659 22.1251 135.351 22.7677C136.043 23.3992 136.989 23.7205 138.187 23.7205C138.571 23.7205 138.901 23.6984 139.198 23.643C139.484 23.5987 139.758 23.5211 140.011 23.4214V20.4743C139.846 20.5187 139.67 20.563 139.462 20.6073C139.253 20.6516 139.022 20.6627 138.769 20.6627C138.384 20.6627 138.066 20.5408 137.824 20.3081C137.571 20.0755 137.45 19.6988 137.45 19.1891V14.6024H140.011L140 14.6134Z" fill="#1D1D1B"/>
<path d="M13.8044 26.6565L4.95682 18.5576C4.748 18.3581 4.3963 18.5132 4.3963 18.8013V21.3274C4.3963 21.7927 4.02261 22.1694 3.561 22.1694H0.835296C0.373685 22.1694 0 21.7927 0 21.3274V9.96011C0 9.22888 0.868268 8.84111 1.40681 9.3286L14.1121 20.9396C14.3099 21.1279 14.6287 21.1058 14.8045 20.9064L33.4009 0.276892C33.9174 -0.299226 34.8626 0.0774663 34.8626 0.841931V13.6938C34.8626 14.1591 34.4889 14.5358 34.0273 14.5358H31.3126C30.851 14.5358 30.4773 14.1591 30.4773 13.6938V11.1345C30.4773 10.78 30.0377 10.6027 29.8069 10.8686L15.6618 26.5678C15.1782 27.1107 14.3429 27.1439 13.8154 26.6565H13.8044Z" fill="#1D1D1B"/>
</g>
<defs>
<clipPath id="clip0_19_356">
<rect width="140" height="27" fill="white"/>
</clipPath>
</defs>
</svg>
