<svg width="33" height="33" viewBox="0 0 33 33" fill="none" xmlns="http://www.w3.org/2000/svg">
<path d="M7.3125 0.5625C9 0 10.875 0.8125 11.625 2.4375L14.0625 7.875C14.75 9.375 14.3125 11.0625 13.0625 12.0625L11.5625 13.3125C13.1875 16.4375 15.6875 19 18.75 20.6875L20.0625 19.0625C21.0625 17.8125 22.8125 17.375 24.25 18.0625L29.6875 20.5625C31.3125 21.25 32.125 23.125 31.5625 24.8125C30.3125 28.75 26.375 32.125 21.5 31.25C10.6875 29.3125 2.8125 21.5 0.875 10.625C0 5.8125 3.4375 1.875 7.3125 0.5625ZM8.875 3.6875C8.75 3.4375 8.5 3.3125 8.25 3.375C5.4375 4.375 3.3125 7.0625 3.875 10.0625C5.5625 19.6875 12.4375 26.625 22.0625 28.3125C25.0625 28.8125 27.8125 26.6875 28.75 23.875C28.8125 23.625 28.6875 23.375 28.4375 23.25L23 20.75C22.8125 20.6875 22.5625 20.75 22.375 20.9375L20.3125 23.5625C19.875 24.0625 19.125 24.25 18.5 23.9375C13.9375 21.8125 10.3125 18.0625 8.3125 13.4375C8.0625 12.8125 8.25 12.125 8.75 11.6875L11.1875 9.75C11.375 9.625 11.4375 9.375 11.375 9.125L8.875 3.6875Z" fill="black"/>
</svg>
