<svg width="20" height="32" viewBox="0 0 20 32" fill="none" xmlns="http://www.w3.org/2000/svg">
<path d="M3 10V10.5C3 11.3125 2.3125 12 1.5 12C0.6875 12 0 11.3125 0 10.5V10C0 4.5 4.5 0 10 0C15.5 0 20 4.5 20 10C20 14.3125 17.25 18 13.4375 19.375C12.1875 19.875 11.5 20.75 11.5 21.5V22.5C11.5 23.3125 10.8125 24 10 24C9.1875 24 8.5 23.3125 8.5 22.5V21.5C8.5 18.9375 10.5625 17.25 12.4375 16.5625C15.125 15.5625 17 13 17 10C17 6.125 13.875 3 10 3C6.125 3 3 6.125 3 10ZM10 32C8.875 32 8 31.125 8 30C8 28.875 8.875 28 10 28C11.125 28 12 28.875 12 30C12 31.125 11.125 32 10 32Z" fill="black"/>
</svg>
