<svg width="36" height="32" viewBox="0 0 36 32" fill="none" xmlns="http://www.w3.org/2000/svg">
<path d="M33 16C33 8.8125 27.1875 3 20 3C12.8125 3 7 8.8125 7 16C7 16.1875 7 16.3125 7 16.5C6.75 16.25 6.5 16.0625 6.3125 15.875C5.625 15.3125 4.8125 15 4.0625 15C4.5625 6.625 11.5 0 20 0C28.8125 0 36 7.1875 36 16C36 24.8125 28.8125 32 20 32C16.0625 32 12.4375 30.5625 9.625 28.1875C10.25 27.375 10.6875 26.375 10.875 25.25C13.25 27.5625 16.4375 29 20 29C27.1875 29 33 23.1875 33 16ZM20 20C22.75 20 25 22.25 25 25C25 25.5625 24.5625 26 24 26H16C15.4375 26 15 25.5625 15 25C15 22.25 17.25 20 20 20ZM23 17C23 15.875 23.875 15 25 15C26.125 15 27 15.875 27 17C27 18.125 26.125 19 25 19C23.875 19 23 18.125 23 17ZM15 19C13.875 19 13 18.125 13 17C13 15.875 13.875 15 15 15C16.125 15 17 15.875 17 17C17 18.125 16.125 19 15 19ZM16.375 9.125C16.875 9.625 16.875 10.375 16.375 10.875L15.9375 11.375C14.4375 12.875 12.4375 13.875 10.375 14.1875L10.1875 14.25C9.5 14.375 8.875 13.875 8.75 13.1875C8.625 12.5 9.125 11.875 9.8125 11.75H9.9375C11.5625 11.5 13 10.75 14.125 9.5625L14.625 9.125C15.125 8.625 15.875 8.625 16.375 9.125ZM23.625 10.875C23.125 10.4375 23.125 9.625 23.625 9.125C24.125 8.625 24.875 8.625 25.375 9.125L25.875 9.5625C27 10.75 28.4375 11.5 30.0625 11.75H30.1875C30.875 11.875 31.375 12.5625 31.25 13.1875C31.125 13.875 30.5 14.375 29.8125 14.25L29.625 14.1875C27.5625 13.875 25.5625 12.875 24.0625 11.375L23.625 10.875ZM8 24C8 26.25 6.25 28 4 28C1.75 28 0 26.25 0 24C0 21.6875 2.0625 19.5625 3.6875 18.125C3.875 17.9375 4.125 17.9375 4.3125 18.125C6 19.5625 8 21.6875 8 24Z" fill="black"/>
</svg>
