<svg width="36" height="28" viewBox="0 0 36 28" fill="none" xmlns="http://www.w3.org/2000/svg">
<path d="M19.9375 0.375L35.0625 6.625C35.625 6.875 36 7.375 36 8C36 8.625 35.625 9.1875 35.0625 9.375L30 11.5V22C30 25.3125 24.625 28 18 28C11.375 28 6 25.3125 6 22V11.5L3 10.25V26.5C3 27.3125 2.3125 28 1.5 28C0.6875 28 0 27.3125 0 26.5V8C0 7.375 0.375 6.875 0.9375 6.625L16.0625 0.375C16.6875 0.125 17.3125 0 18 0C18.6875 0 19.3125 0.125 19.9375 0.375ZM9 22V22.0625C9.0625 22.125 9.125 22.25 9.25 22.375C9.5 22.75 10 23.125 10.875 23.5625C12.5625 24.375 15.0625 25 18 25C20.9375 25 23.5 24.375 25.125 23.5625C26 23.125 26.5 22.75 26.75 22.375C26.875 22.25 26.9375 22.125 27 22.0625C27 22.0625 27 22.0625 27 22V12.6875L19.9375 15.625C19.3125 15.875 18.6875 16 18 16C17.3125 16 16.6875 15.875 16.0625 15.625L9 12.6875V22ZM5.4375 8L17.25 12.875C17.5 12.9375 17.75 13 18 13C18.25 13 18.5625 12.9375 18.8125 12.875L30.5625 8L18.8125 3.1875C18.5625 3.0625 18.25 3 18 3C17.75 3 17.5 3.0625 17.25 3.1875L5.4375 8Z" fill="black"/>
</svg>
