<svg width="28" height="28" viewBox="0 0 28 28" fill="none" xmlns="http://www.w3.org/2000/svg">
<path d="M23.8125 4.0625C26.4375 6.6875 28 10.1875 28 13.875C28 21.5625 21.625 27.75 14 27.75C11.6875 27.75 9.375 27.1875 7.375 26.0625L0 28L2 20.8125C0.75 18.6875 0.125 16.3125 0.125 13.875C0.125 6.25 6.375 0 14 0C17.6875 0 21.1875 1.4375 23.8125 4.0625ZM14 25.4375C20.375 25.4375 25.6875 20.25 25.6875 13.875C25.6875 10.8125 24.3125 7.9375 22.125 5.75C20 3.5625 17.0625 2.375 14 2.375C7.625 2.375 2.4375 7.5 2.4375 13.875C2.4375 16.0625 3.0625 18.1875 4.25 20L4.5 20.4375L3.3125 24.6875L7.6875 23.5625L8.125 23.8125C9.875 24.875 11.9375 25.4375 14 25.4375ZM20.3125 16.8125C20.6875 16.9375 20.875 17.0625 21 17.1875C21.0625 17.3125 21.0625 18.0625 20.75 18.875C20.5 19.6875 19.125 20.375 18.4375 20.5C17.3125 20.6875 16.5 20.5625 14.25 19.625C10.8125 18.125 8.5 14.625 8.375 14.375C8.1875 14.1875 6.9375 12.5 6.9375 10.8125C6.9375 9.125 7.8125 8.25 8.125 7.9375C8.5 7.5625 8.875 7.5 9.0625 7.5C9.3125 7.5 9.5625 7.5 9.75 7.5C9.9375 7.5 10.25 7.4375 10.5 8.0625C10.8125 8.75 11.5 10.5 11.5625 10.6875C11.6875 10.8125 11.75 11.0625 11.625 11.25C10.9375 12.5625 10.25 12.5625 10.625 13.1875C11.9375 15.4375 13.3125 16.25 15.3125 17.3125C15.6875 17.4375 15.875 17.4375 16.0625 17.1875C16.25 16.9375 16.9375 16.1875 17.1875 15.8125C17.375 15.5 17.625 15.5625 17.9375 15.6875C18.25 15.75 20 16.625 20.3125 16.8125Z" fill="black"/>
</svg>
